# xmcd
#
# Track frame offsets:
#	150
#	18224
#	36574
#	50913
#	70102
#	85549
#	101177
#	114931
#	128871
#	143222
#	158882
#	173982
#
# Disc length: 2570 seconds
#
# Revision: 0
# Processed by: cddbd v1.5.1PL0 Copyright (c) Steve Scherf et al.
# Submitted via: EasyCDDAExtractor 8.1.4.1
#
DISCID=a30a080c
DTITLE=Bartók Krisztián - 1x1 Forradalom
DYEAR=2005
DGENRE=Pop
TTITLE0=1x1
TTITLE1=Forradalom
TTITLE2=Ne sírj
TTITLE3=Hazatér
TTITLE4=Szakíts, ha bírsz
TTITLE5=Széttört szív
TTITLE6=Játszik még
TTITLE7=Az üveghegy helyén
TTITLE8=Szívbõl szeret
TTITLE9=Félj még
TTITLE10=Ez a dal eladó
TTITLE11=Miénk volt
EXTD=
EXTT0=
EXTT1=
EXTT2=
EXTT3=
EXTT4=
EXTT5=
EXTT6=
EXTT7=
EXTT8=
EXTT9=
EXTT10=
EXTT11=
PLAYORDER=
